<?xml version="1.0" encoding="UTF-8"?>
<svg id="Layer_2" data-name="Layer 2" xmlns="http://www.w3.org/2000/svg" viewBox="0 0 456.77 185.38">
  <defs>
    <style>
      .cls-1 {
        fill: #365c6d;
      }

      .cls-1, .cls-2 {
        stroke-width: 0px;
      }

      .cls-2 {
        fill: #29abe2;
      }
    </style>
  </defs>
  <g id="Layer_1-2" data-name="Layer 1">
    <polygon class="cls-1" points="31.35 185.38 61.37 129.66 0 96.42 31.35 185.38"/>
    <polygon class="cls-1" points="30.01 78.46 61.64 107.06 80.78 46.13 30.01 78.46"/>
    <polygon class="cls-1" points="134.3 57.98 198.57 51.11 168.85 0 134.3 57.98"/>
    <polygon class="cls-2" points="93.23 50.36 116.82 70.65 104.16 19.6 93.23 50.36"/>
    <g>
      <path class="cls-1" d="M111.21,125.18h-13.51l-2.96,7.03h-7.08l14.42-33.51h5.12l14.01,33.51h-7.03l-2.96-7.03ZM109.3,119.85l-4.77-12.06-4.77,12.06h9.54Z"/>
      <path class="cls-1" d="M131.65,98.71v33.51h-6.53v-33.51h6.53Z"/>
      <path class="cls-1" d="M160.69,98.71c4.62,0,6.98,1.21,8.54,2.51,2.56,2.16,3.32,5.02,3.32,7.54,0,3.27-1.31,6.13-3.92,7.89-.85.6-2.06,1.16-3.67,1.46l10.45,14.12h-8.14l-8.94-13.46h-.8v13.46h-6.53v-33.51h9.7ZM157.52,114.13h1.86c1.26,0,6.43-.15,6.43-5.07s-5.12-5.02-6.33-5.02h-1.96v10.1Z"/>
      <path class="cls-1" d="M199.66,125.18h-13.51l-2.96,7.03h-7.08l14.42-33.51h5.12l14.02,33.51h-7.03l-2.96-7.03ZM192.88,85.75c2.81,0,4.97,2.16,4.97,4.97s-2.16,4.97-4.97,4.97-4.97-2.16-4.97-4.97,2.16-4.97,4.97-4.97ZM197.75,119.85l-4.77-12.06-4.77,12.06h9.54ZM192.88,92.73c1.15,0,2.01-.85,2.01-2.01s-.85-2.01-2.01-2.01-2.01.85-2.01,2.01.85,2.01,2.01,2.01Z"/>
      <path class="cls-1" d="M222.31,98.71c4.67,0,8.74.5,12.46,3.27,4.07,3.06,6.43,7.94,6.43,13.51s-2.31,10.4-6.73,13.51c-3.92,2.76-7.58,3.21-12.26,3.21h-8.64v-33.51h8.74ZM220.1,126.59h2.01c1.66,0,5.28-.1,8.19-2.21,2.66-1.91,4.17-5.33,4.17-8.89s-1.46-6.93-4.12-8.94c-2.71-2.01-6.03-2.21-8.24-2.21h-2.01v22.25Z"/>
      <path class="cls-1" d="M264.2,114.28h15.37v.4c0,2.26-.3,9.29-4.92,13.86-3.46,3.47-7.73,4.42-11.9,4.42s-8.49-.85-12.16-4.52c-1.16-1.16-4.97-5.38-4.97-12.91,0-6.48,2.91-10.45,4.92-12.46,2.51-2.56,6.73-5.12,13.21-5.12,2.51,0,5.17.4,7.74,1.76,2.16,1.1,4.52,3.11,6.28,6.13l-5.68,3.06c-1.16-2.26-2.86-3.42-3.92-3.97-1.41-.7-3.17-1.06-4.72-1.06-2.66,0-5.68.96-7.74,2.96-1.91,1.86-3.37,5.07-3.37,8.84,0,4.47,1.91,7.13,3.32,8.49,1.51,1.46,3.87,2.86,7.43,2.86,2.21,0,4.72-.6,6.58-2.01,1.31-1,2.61-2.71,3.17-5.12h-8.64v-5.63Z"/>
      <path class="cls-1" d="M292.13,98.71v33.51h-6.53v-33.51h6.53Z"/>
      <path class="cls-1" d="M303.18,98.71l8.94,22.5,8.94-22.5h7.13l-14.17,33.51h-3.92l-14.06-33.51h7.13Z"/>
      <path class="cls-1" d="M332.11,132.21v-33.51h4.52l20.39,22.35v-22.35h6.53v33.51h-4.52l-20.39-22.4v22.4h-6.53Z"/>
      <path class="cls-1" d="M377.71,98.71v33.51h-6.53v-33.51h6.53Z"/>
      <path class="cls-1" d="M385.35,132.21v-33.51h4.52l20.39,22.35v-22.35h6.53v33.51h-4.52l-20.39-22.4v22.4h-6.53Z"/>
      <path class="cls-1" d="M441.4,114.28h15.37v.4c0,2.26-.3,9.29-4.92,13.86-3.47,3.47-7.74,4.42-11.91,4.42s-8.49-.85-12.16-4.52c-1.15-1.16-4.97-5.38-4.97-12.91,0-6.48,2.91-10.45,4.92-12.46,2.51-2.56,6.73-5.12,13.21-5.12,2.51,0,5.17.4,7.74,1.76,2.16,1.1,4.52,3.11,6.28,6.13l-5.68,3.06c-1.16-2.26-2.86-3.42-3.92-3.97-1.41-.7-3.17-1.06-4.72-1.06-2.66,0-5.68.96-7.74,2.96-1.91,1.86-3.37,5.07-3.37,8.84,0,4.47,1.91,7.13,3.32,8.49,1.51,1.46,3.87,2.86,7.43,2.86,2.21,0,4.72-.6,6.58-2.01,1.31-1,2.61-2.71,3.17-5.12h-8.64v-5.63Z"/>
    </g>
  </g>
</svg>